<?xml version="1.0" standalone="no"?>
<!DOCTYPE svg PUBLIC "-//W3C//DTD SVG 20010904//EN"
 "http://www.w3.org/TR/2001/REC-SVG-20010904/DTD/svg10.dtd">
<svg version="1.0" xmlns="http://www.w3.org/2000/svg"
 width="400.000000pt" height="300.000000pt" viewBox="0 0 400.000000 300.000000"
 preserveAspectRatio="xMidYMid meet">

<g transform="translate(0.000000,300.000000) scale(0.100000,-0.100000)"
fill="#000000" stroke="none">
<path d="M1415 2326 c-58 -14 -110 -40 -144 -70 -13 -11 -21 -15 -16 -7 6 11
4 13 -7 8 -24 -9 -30 4 -12 27 9 12 -4 -1 -29 -27 -54 -56 -83 -127 -98 -236
-6 -46 -9 -273 -7 -581 4 -491 4 -507 26 -570 42 -124 130 -208 257 -247 55
-16 107 -18 615 -18 508 0 560 2 615 18 127 39 215 123 257 247 22 63 22 78
26 598 3 510 2 537 -17 614 -24 94 -54 149 -108 198 l-38 35 35 -39 c30 -33
31 -37 10 -26 -16 9 -25 9 -28 2 -1 -5 -26 5 -53 24 -28 18 -67 39 -87 46 -54
18 -1127 22 -1197 4z m200 -125 c81 -36 133 -108 142 -195 8 -81 -11 -133 -70
-191 -104 -101 -230 -101 -334 0 -59 58 -78 110 -70 191 13 124 113 214 237
214 32 0 72 -8 95 -19z m415 -15 c6 -8 10 -25 8 -38 -6 -42 -78 -32 -78 11 0
37 46 55 70 27z m158 -34 c-2 -21 -9 -28 -30 -30 -39 -5 -56 30 -28 58 28 28
63 11 58 -28z m-310 0 c4 -26 -21 -40 -42 -23 -8 7 -12 21 -9 32 8 28 47 22
51 -9z m-522 -973 c30 -29 54 -60 54 -69 0 -21 -106 -123 -120 -115 -11 7 -14
218 -3 228 10 11 11 10 69 -44z"/>
<path d="M1432 2149 c-56 -28 -94 -84 -100 -148 -6 -65 11 -110 55 -152 l37
-34 -33 39 c-32 38 -33 41 -29 115 3 80 16 108 66 146 59 44 176 25 221 -35
47 -64 45 -178 -4 -232 l-30 -33 37 34 c45 42 62 87 56 152 -13 132 -154 208
-276 148z"/>
<path d="M1508 1793 c6 -2 18 -2 25 0 6 3 1 5 -13 5 -14 0 -19 -2 -12 -5z"/>
</g>
</svg>
